# xmcd
#
# Track frame offsets:
#	150
#	17395
#	29012
#	50905
#	62923
#	79454
#	94027
#	106841
#	125895
#	138073
#	150567
#	163519
#	177835
#	190059
#
# Disc length: 2720 seconds
# Revision: 0
# Processed by: cddbd v1.5.2PL0 Copyright (c) Steve Scherf et al.
# Submitted via: dBpowerAMP V12.0
#
DISCID=b80a9e0e
DTITLE=Sarah Carroll - Home and Heart
DYEAR=2011
DGENRE=Country
TTITLE0=New Shoes
TTITLE1=Slow Sunday
TTITLE2=Ponty Wood
TTITLE3=Secret Sound
TTITLE4=Treat Her Like A Queen
TTITLE5=Skate Park
TTITLE6=Little Reunion
TTITLE7=Wild Garden
TTITLE8=Nymagee Sun Goes Down
TTITLE9=Ukulele Bitchfight
TTITLE10=Forgiveness
TTITLE11=I'm Not A Toy
TTITLE12=Mr Business Man
TTITLE13=Love For Free
EXTD=
EXTT0=
EXTT1=
EXTT2=
EXTT3=
EXTT4=
EXTT5=
EXTT6=
EXTT7=
EXTT8=
EXTT9=
EXTT10=
EXTT11=
EXTT12=
EXTT13=
PLAYORDER=
